<?xml version="1.0" encoding="utf-8"?>
<!-- Generator: Adobe Illustrator 24.0.0, SVG Export Plug-In . SVG Version: 6.00 Build 0)  -->
<svg version="1.1" id="圖層_1" xmlns="http://www.w3.org/2000/svg" xmlns:xlink="http://www.w3.org/1999/xlink" x="0px" y="0px"
	 viewBox="0 0 600 400" style="enable-background:new 0 0 600 400;" xml:space="preserve">
<style type="text/css">
	.st0{fill:#A1C33A;}
	.st1{stroke:#231815;stroke-miterlimit:10;}
	.st2{fill:#A1C33A;stroke:#A1C33A;stroke-miterlimit:10;}
</style>
<g>
	<polygon class="st0" points="39.1,249.2 50.9,244.9 71.4,200.1 68.1,191.9 101.6,234.1 172.5,244.5 171.6,237.6 132.4,193.8 
		63.3,185.4 63.3,190.8 	"/>
	<g>
		<polygon class="st0" points="72.7,229.1 79.9,226 79.9,215.5 72.7,218.9 		"/>
		<polygon class="st0" points="70.5,230 70.5,219.9 63.4,223.4 63.4,233.1 		"/>
		<polygon class="st0" points="72.7,231.5 72.7,242 79.9,239.1 79.9,228.5 		"/>
		<polygon class="st0" points="70.5,232.5 63.4,235.5 63.4,245.7 70.5,242.9 		"/>
	</g>
</g>
<g>
	<polygon class="st0" points="108.4,184.7 123.3,181.1 154.4,129.9 151.6,119.5 186,175.3 270.2,198 270.2,189.5 229,131 146.8,111 
		146,117.5 	"/>
	<g>
		<polygon class="st0" points="152.9,167.1 161.8,164.1 162.9,151.3 153.9,154.7 		"/>
		<polygon class="st0" points="150,168 151.1,155.8 142.1,159.1 141.1,170.9 		"/>
		<polygon class="st0" points="152.6,170 151.5,182.7 160.5,180 161.6,167.1 		"/>
		<polygon class="st0" points="149.8,170.9 140.8,173.9 139.7,186.2 148.7,183.5 		"/>
	</g>
</g>
<polygon class="st0" points="187,104.3 191.3,111 196.3,111 196.3,122.7 209,120.1 209,107.4 199.9,109.3 210.7,104.3 217.7,109.3 
	217.7,112.5 221.7,111 221.7,102.7 211.3,93.7 "/>
<g>
	<g>
		<path class="st1" d="M204.5,200.3c4.9,0,8.8,1,11.6,3c2.8,2,4.2,4.8,4.2,8.4c0,2-0.6,3.7-1.8,5.1c-1.2,1.4-2.9,2.6-5.2,3.5
			c2.6,0.7,4.4,1.8,5.5,3.4c1.1,1.6,1.7,3.5,1.7,5.9v2c0,0.9,0.2,1.5,0.6,2c0.4,0.5,1,0.8,1.9,0.8l1.1,0.1v4.7h-4.5
			c-2.8,0-4.8-0.7-6-2.1c-1.2-1.4-1.7-3.2-1.7-5.3v-2.2c0-1.9-0.6-3.4-1.7-4.5c-1.1-1.1-2.7-1.6-4.8-1.7h-7.1v10.3l4.6,0.8v4.7h-18
			v-4.7l4.6-0.8v-28L185,205v-4.7h4.6H204.5z M198.3,217.5h6c2.4,0,4.2-0.5,5.5-1.4c1.2-0.9,1.8-2.3,1.8-4s-0.6-3.2-1.8-4.2
			c-1.2-1-3-1.6-5.3-1.6h-6.2V217.5z"/>
		<path class="st1" d="M241.1,239.9c-4.6,0-8.4-1.3-11.1-4c-2.8-2.7-4.2-6.1-4.2-10.2v-1.1c0-4.3,1.3-7.9,3.9-10.6
			c2.6-2.8,6.2-4.2,10.6-4.2c4.3,0,7.7,1.2,10.1,3.5c2.4,2.4,3.6,5.5,3.6,9.6v4.3h-19.2l-0.1,0.2c0.2,1.9,0.9,3.5,2.1,4.7
			c1.3,1.2,3,1.8,5.1,1.8c1.9,0,3.5-0.2,4.8-0.5c1.3-0.3,2.7-0.9,4.2-1.6l2.4,4.8c-1.3,0.9-3.1,1.7-5.2,2.4
			C246,239.6,243.7,239.9,241.1,239.9z M240.3,215.8c-1.6,0-2.9,0.6-3.8,1.7c-0.9,1.1-1.5,2.6-1.7,4.4l0.1,0.1h10.7v-0.7
			c0-1.7-0.4-3-1.3-4C243.3,216.3,242,215.8,240.3,215.8z"/>
		<path class="st1" d="M256.1,234.6l4.2-0.8v-18l-4.6-0.8v-4.7h12.7l0.4,4.2c1.1-1.5,2.4-2.6,4-3.5c1.6-0.8,3.3-1.2,5.3-1.2
			c3.3,0,5.8,0.9,7.6,2.8c1.8,1.8,2.7,4.7,2.7,8.7v12.6l4.2,0.8v4.7h-16.6v-4.7l3.7-0.8v-12.6c0-1.9-0.4-3.3-1.3-4.1
			c-0.9-0.8-2.2-1.2-4-1.2c-1.2,0-2.2,0.2-3.1,0.6c-0.9,0.4-1.7,1-2.3,1.8v15.5l3.5,0.8v4.7h-16.4V234.6z"/>
		<path class="st1" d="M306.6,203.2v7.1h5.7v5.5h-5.7v14.8c0,1.1,0.3,1.9,0.8,2.4s1.2,0.7,2.1,0.7c0.6,0,1.1,0,1.6-0.1
			c0.4,0,0.9-0.1,1.5-0.2l0.7,5.7c-1,0.3-1.9,0.5-2.9,0.6c-1,0.1-2,0.2-3.1,0.2c-3,0-5.3-0.7-6.9-2.2c-1.6-1.5-2.4-3.8-2.4-7v-14.8
			h-4.7v-5.5h4.7v-7.1H306.6z"/>
		<path class="st1" d="M367.9,220.1c0,5.7-1.8,10.4-5.5,14.2c-3.6,3.7-8.4,5.6-14.3,5.6c-5.9,0-10.6-1.9-14.2-5.6
			c-3.6-3.7-5.4-8.5-5.4-14.2v-0.6c0-5.7,1.8-10.4,5.4-14.2s8.3-5.6,14.2-5.6c5.9,0,10.6,1.9,14.3,5.6c3.6,3.8,5.5,8.5,5.5,14.2
			V220.1z M359.2,219.5c0-4-0.9-7.3-2.8-9.8c-1.9-2.5-4.6-3.8-8.3-3.8s-6.4,1.3-8.2,3.8c-1.8,2.5-2.7,5.8-2.7,9.9v0.6
			c0,4.1,0.9,7.4,2.7,9.9c1.8,2.5,4.5,3.8,8.2,3.8c3.7,0,6.4-1.3,8.3-3.8c1.8-2.5,2.8-5.8,2.8-9.9V219.5z"/>
		<path class="st1" d="M416,215l-3.2,0.4l-6.7,23.9h-7.3l-6-17.3h-0.2l-6,17.3h-7.2l-6.8-23.9l-3.2-0.4v-4.7h14.6v4.7l-3.4,0.6
			l3,13.3h0.2l6-18.6h5.8l6.1,18.6h0.2l3-13.3l-3.5-0.6v-4.7H416V215z"/>
		<path class="st1" d="M417,234.6l4.2-0.8v-18l-4.6-0.8v-4.7h12.7l0.4,4.2c1.1-1.5,2.4-2.6,4-3.5c1.6-0.8,3.3-1.2,5.3-1.2
			c3.3,0,5.8,0.9,7.6,2.8c1.8,1.8,2.7,4.7,2.7,8.7v12.6l4.2,0.8v4.7h-16.6v-4.7l3.7-0.8v-12.6c0-1.9-0.4-3.3-1.3-4.1
			c-0.9-0.8-2.2-1.2-4-1.2c-1.2,0-2.2,0.2-3.1,0.6c-0.9,0.4-1.7,1-2.3,1.8v15.5l3.5,0.8v4.7H417V234.6z"/>
	</g>
</g>
<g>
	<g>
		<path class="st1" d="M99.7,254v-4.7h18v4.7l-4.6,0.8v11.3h17.7v-11.3l-4.6-0.8v-4.7h4.6h8.7h4.6v4.7l-4.6,0.8v28l4.6,0.8v4.7h-18
			v-4.7l4.6-0.8v-10.7H113v10.7l4.6,0.8v4.7h-18v-4.7l4.6-0.8v-28L99.7,254z"/>
		<path class="st1" d="M146.1,273.6c0-4.3,1.3-7.9,4-10.6c2.7-2.8,6.4-4.1,11.2-4.1c4.8,0,8.5,1.4,11.2,4.1c2.7,2.8,4,6.3,4,10.6
			v0.6c0,4.4-1.3,7.9-4,10.7c-2.7,2.7-6.4,4.1-11.1,4.1c-4.8,0-8.5-1.4-11.2-4.1c-2.7-2.7-4-6.3-4-10.7V273.6z M154.8,274.1
			c0,2.6,0.5,4.8,1.5,6.4c1,1.6,2.7,2.4,5,2.4c2.2,0,3.9-0.8,4.9-2.4c1-1.6,1.6-3.7,1.6-6.4v-0.6c0-2.6-0.5-4.7-1.6-6.3
			c-1.1-1.6-2.7-2.4-5-2.4s-3.9,0.8-4.9,2.4c-1,1.6-1.5,3.7-1.5,6.3V274.1z"/>
		<path class="st1" d="M177.7,264v-4.7h12.7l0.4,3.8c1-1.4,2.3-2.5,3.9-3.2s3.4-1.1,5.4-1.1c2.1,0,3.8,0.4,5.3,1.2
			c1.5,0.8,2.6,2.1,3.3,3.7c1-1.6,2.3-2.8,3.9-3.6c1.6-0.9,3.5-1.3,5.6-1.3c3.2,0,5.7,1,7.5,3c1.8,2,2.8,5,2.8,9v12.1l4.2,0.8v4.7
			H216v-4.7l3.8-0.8v-12.1c0-2.2-0.4-3.7-1.2-4.6c-0.8-0.9-2-1.3-3.5-1.3c-1.2,0-2.3,0.2-3.2,0.7c-0.9,0.5-1.6,1.2-2.2,2.1
			c0,0.3,0,0.6,0,0.9c0,0.2,0,0.5,0,0.7v13.6l3.5,0.8v4.7h-15.7v-4.7l3.5-0.8v-12.1c0-2.1-0.4-3.7-1.2-4.5s-2-1.3-3.6-1.3
			c-1.2,0-2.2,0.2-3.1,0.6c-0.9,0.4-1.6,1-2.2,1.7v15.7l3.8,0.8v4.7h-16.6v-4.7l4.2-0.8v-18L177.7,264z"/>
		<path class="st1" d="M249.1,288.9c-4.6,0-8.4-1.3-11.1-4c-2.8-2.7-4.2-6.1-4.2-10.2v-1.1c0-4.3,1.3-7.9,3.9-10.6
			c2.6-2.8,6.2-4.2,10.6-4.2c4.3,0,7.7,1.2,10.1,3.5c2.4,2.4,3.6,5.5,3.6,9.6v4.3h-19.2l-0.1,0.2c0.2,1.9,0.9,3.5,2.1,4.7
			c1.3,1.2,3,1.8,5.1,1.8c1.9,0,3.5-0.2,4.8-0.5c1.3-0.3,2.7-0.9,4.2-1.6l2.4,4.8c-1.3,0.9-3.1,1.7-5.2,2.4
			C254,288.6,251.7,288.9,249.1,288.9z M248.3,264.8c-1.6,0-2.9,0.6-3.8,1.7c-0.9,1.1-1.5,2.6-1.7,4.4l0.1,0.1h10.7v-0.7
			c0-1.7-0.4-3-1.3-4C251.4,265.3,250.1,264.8,248.3,264.8z"/>
		<path class="st1" d="M290.9,269.3h-5.8l-0.9-3.6c-0.6-0.4-1.3-0.8-2.2-1.1c-0.9-0.3-1.9-0.4-3-0.4c-1.5,0-2.7,0.3-3.6,0.9
			c-0.9,0.6-1.3,1.4-1.3,2.3c0,0.9,0.4,1.6,1.3,2.2c0.9,0.6,2.6,1.1,5.1,1.5c4,0.7,6.9,1.8,8.9,3.1c1.9,1.4,2.9,3.3,2.9,5.7
			c0,2.6-1.2,4.7-3.7,6.4c-2.5,1.7-5.8,2.5-9.8,2.5c-2.5,0-4.8-0.3-6.8-1c-2.1-0.7-3.9-1.6-5.5-2.8l-0.1-6.5h6.1l1.2,3.8
			c0.5,0.4,1.2,0.7,2.1,0.9c0.9,0.2,1.8,0.3,2.8,0.3c1.8,0,3.1-0.3,4-0.9c0.9-0.6,1.4-1.3,1.4-2.3c0-0.9-0.5-1.6-1.4-2.2
			c-0.9-0.6-2.7-1.2-5.2-1.7c-3.8-0.7-6.7-1.7-8.6-3.1c-1.9-1.4-2.9-3.2-2.9-5.6c0-2.4,1.1-4.5,3.3-6.3c2.2-1.8,5.4-2.6,9.5-2.6
			c2.5,0,4.9,0.3,7.1,0.9c2.2,0.6,4,1.4,5.3,2.3L290.9,269.3z"/>
		<path class="st1" d="M328.4,249.3c5,0,8.9,1.1,11.8,3.4c2.9,2.3,4.3,5.3,4.3,9c0,3.7-1.4,6.7-4.3,9c-2.9,2.3-6.8,3.4-11.8,3.4H321
			v8.7l4.6,0.8v4.7h-18v-4.7l4.6-0.8v-28l-4.6-0.8v-4.7h4.6H328.4z M321,268.1h7.3c2.4,0,4.3-0.6,5.5-1.8c1.2-1.2,1.9-2.7,1.9-4.5
			c0-1.9-0.6-3.4-1.9-4.7c-1.2-1.2-3.1-1.8-5.5-1.8H321V268.1z"/>
		<path class="st1" d="M346.5,283.6l4.2-0.8v-18l-4.6-0.8v-4.7h12.7l0.4,4.2c0.8-1.5,1.7-2.7,2.9-3.5c1.2-0.8,2.6-1.3,4.1-1.3
			c0.5,0,0.9,0,1.4,0.1c0.5,0.1,0.9,0.1,1.3,0.2l-0.9,7.1l-3.6-0.1c-1.3,0-2.3,0.2-3.2,0.7c-0.8,0.4-1.5,1.1-1.9,1.9v14.1l4.2,0.8
			v4.7h-17V283.6z"/>
		<path class="st1" d="M369.4,273.6c0-4.3,1.3-7.9,4-10.6s6.4-4.1,11.2-4.1c4.8,0,8.5,1.4,11.2,4.1c2.7,2.8,4,6.3,4,10.6v0.6
			c0,4.4-1.3,7.9-4,10.7s-6.4,4.1-11.1,4.1c-4.8,0-8.5-1.4-11.2-4.1s-4-6.3-4-10.7V273.6z M378.1,274.1c0,2.6,0.5,4.8,1.5,6.4
			c1,1.6,2.7,2.4,5,2.4c2.2,0,3.9-0.8,4.9-2.4c1-1.6,1.6-3.7,1.6-6.4v-0.6c0-2.6-0.5-4.7-1.6-6.3c-1.1-1.6-2.7-2.4-5-2.4
			s-3.9,0.8-4.9,2.4c-1,1.6-1.5,3.7-1.5,6.3V274.1z"/>
	</g>
</g>
<g>
	<path class="st2" d="M411.2,286.9h-8.7V280h8.7V286.9z"/>
	<path class="st2" d="M429.7,281.4c1.5,0,2.8-0.4,3.7-1.2c0.9-0.8,1.4-1.9,1.4-3.3h7.9l0.1,0.2c0.1,2.9-1.1,5.4-3.7,7.4
		c-2.5,2-5.7,3-9.4,3c-4.8,0-8.5-1.4-11.1-4.1c-2.6-2.7-3.9-6.2-3.9-10.5V272c0-4.3,1.3-7.8,4-10.5c2.7-2.8,6.5-4.1,11.4-4.1
		c2.6,0,4.9,0.3,7,1c2.1,0.7,3.8,1.7,5.2,2.9l0.1,7.7h-7.1l-1.4-4.5c-0.4-0.3-1-0.6-1.6-0.8c-0.6-0.2-1.4-0.3-2.2-0.3
		c-2.5,0-4.2,0.8-5.2,2.4s-1.5,3.7-1.5,6.2v0.8c0,2.6,0.5,4.7,1.4,6.3C425.7,280.6,427.4,281.4,429.7,281.4z"/>
	<path class="st2" d="M445.2,272.1c0-4.3,1.3-7.9,4-10.6s6.4-4.1,11.2-4.1c4.8,0,8.5,1.4,11.2,4.1c2.7,2.8,4,6.3,4,10.6v0.6
		c0,4.4-1.3,7.9-4,10.7s-6.4,4.1-11.1,4.1c-4.8,0-8.5-1.4-11.2-4.1s-4-6.3-4-10.7V272.1z M453.9,272.7c0,2.6,0.5,4.8,1.5,6.4
		s2.7,2.4,5,2.4c2.2,0,3.9-0.8,4.9-2.4c1-1.6,1.6-3.7,1.6-6.4v-0.6c0-2.6-0.5-4.7-1.6-6.3c-1.1-1.6-2.7-2.4-5-2.4s-3.9,0.8-4.9,2.4
		c-1,1.6-1.5,3.7-1.5,6.3V272.7z"/>
	<path class="st2" d="M476.9,262.6v-4.7h12.7l0.4,3.8c1-1.4,2.3-2.5,3.9-3.2s3.4-1.1,5.4-1.1c2.1,0,3.8,0.4,5.3,1.2
		c1.5,0.8,2.6,2.1,3.3,3.7c1-1.6,2.3-2.8,3.9-3.6c1.6-0.9,3.5-1.3,5.6-1.3c3.2,0,5.7,1,7.5,3c1.8,2,2.8,5,2.8,9v12.1l4.2,0.8v4.7
		h-16.7v-4.7l3.8-0.8v-12.1c0-2.2-0.4-3.7-1.2-4.6c-0.8-0.9-2-1.3-3.5-1.3c-1.2,0-2.3,0.2-3.2,0.7c-0.9,0.5-1.6,1.2-2.2,2.1
		c0,0.3,0,0.6,0,0.9s0,0.5,0,0.7v13.6l3.5,0.8v4.7h-15.7v-4.7l3.5-0.8v-12.1c0-2.1-0.4-3.7-1.2-4.5s-2-1.3-3.6-1.3
		c-1.2,0-2.2,0.2-3.1,0.6c-0.9,0.4-1.6,1-2.2,1.7v15.7l3.8,0.8v4.7h-16.6v-4.7l4.2-0.8v-18L476.9,262.6z"/>
</g>
</svg>
